<svg width="15" height="15" viewBox="0 0 15 15" fill="none" xmlns="http://www.w3.org/2000/svg">
<g clip-path="url(#clip0_37_5)">
<path d="M7.5 13.5937C6.29477 13.5937 5.11661 13.2364 4.1145 12.5668C3.11238 11.8972 2.33133 10.9455 1.87011 9.83198C1.40889 8.71849 1.28821 7.49324 1.52334 6.31117C1.75847 5.1291 2.33884 4.04329 3.19107 3.19107C4.0433 2.33884 5.1291 1.75847 6.31117 1.52334C7.49324 1.28821 8.71849 1.40889 9.83198 1.87011C10.9455 2.33133 11.8972 3.11238 12.5668 4.11449C13.2364 5.1166 13.5938 6.29477 13.5938 7.5C13.5938 9.11616 12.9517 10.6661 11.8089 11.8089C10.6661 12.9517 9.11617 13.5937 7.5 13.5937ZM7.5 2.34375C6.48019 2.34375 5.48328 2.64616 4.63534 3.21273C3.7874 3.77931 3.12651 4.58461 2.73625 5.52679C2.34598 6.46897 2.24387 7.50572 2.44283 8.50593C2.64178 9.50615 3.13287 10.4249 3.85398 11.146C4.5751 11.8671 5.49385 12.3582 6.49407 12.5572C7.49428 12.7561 8.53103 12.654 9.47321 12.2638C10.4154 11.8735 11.2207 11.2126 11.7873 10.3647C12.3538 9.51672 12.6563 8.51981 12.6563 7.5C12.6563 6.13248 12.113 4.82096 11.146 3.85398C10.179 2.887 8.86753 2.34375 7.5 2.34375Z" fill="#FFE500"/>
<path d="M7.5 7.96875C7.03645 7.96875 6.58331 7.83129 6.19788 7.57375C5.81246 7.31622 5.51205 6.95018 5.33466 6.52191C5.15727 6.09365 5.11085 5.6224 5.20129 5.16775C5.29172 4.71311 5.51494 4.2955 5.84272 3.96772C6.1705 3.63994 6.58812 3.41672 7.04276 3.32628C7.4974 3.23585 7.96865 3.28226 8.39692 3.45965C8.82518 3.63705 9.19122 3.93745 9.44876 4.32288C9.70629 4.70831 9.84375 5.16145 9.84375 5.625C9.84375 6.2466 9.59682 6.84274 9.15728 7.28228C8.71774 7.72182 8.1216 7.96875 7.5 7.96875ZM7.5 4.21875C7.22187 4.21875 6.94999 4.30122 6.71873 4.45574C6.48747 4.61026 6.30723 4.82989 6.2008 5.08685C6.09436 5.34381 6.06651 5.62656 6.12077 5.89934C6.17503 6.17213 6.30896 6.4227 6.50563 6.61937C6.7023 6.81603 6.95287 6.94997 7.22566 7.00423C7.49844 7.05849 7.78119 7.03064 8.03815 6.9242C8.29511 6.81777 8.51474 6.63752 8.66926 6.40627C8.82378 6.17501 8.90625 5.90313 8.90625 5.625C8.90625 5.25204 8.75809 4.89435 8.49437 4.63063C8.23065 4.36691 7.87296 4.21875 7.5 4.21875Z" fill="#FFE500"/>
<path d="M11.9766 11.25C11.9115 11.2504 11.8471 11.2373 11.7874 11.2115C11.7277 11.1857 11.674 11.1477 11.6297 11.1C11.1322 10.5573 10.5274 10.1238 9.85369 9.82683C9.17996 9.52991 8.45193 9.37605 7.71567 9.375H7.28442C5.91202 9.37204 4.59233 9.90328 3.60474 10.8562C3.51349 10.9315 3.39714 10.9696 3.27904 10.9626C3.16094 10.9557 3.04982 10.9044 2.96796 10.819C2.88611 10.7336 2.83958 10.6204 2.83771 10.5021C2.83583 10.3838 2.87875 10.2692 2.95786 10.1812C4.11843 9.0595 5.67035 8.43403 7.28442 8.4375H7.71567C8.58109 8.43946 9.43675 8.62036 10.2289 8.96884C11.0211 9.31732 11.7326 9.82586 12.3188 10.4625C12.3807 10.5293 12.4219 10.6127 12.4372 10.7024C12.4525 10.7922 12.4413 10.8845 12.405 10.9681C12.3687 11.0516 12.3089 11.1227 12.2328 11.1728C12.1567 11.2229 12.0677 11.2497 11.9766 11.25Z" fill="#FFE500"/>
</g>
<defs>
<clipPath id="clip0_37_5">
<rect width="15" height="15" fill="white"/>
</clipPath>
</defs>
</svg>
