<svg width="15" height="15" viewBox="0 0 15 15" fill="none" xmlns="http://www.w3.org/2000/svg">
<path d="M0 2.125V2.69775V12.3022V12.875H15V12.3022V2.69775V2.125H0ZM9.15625 7.641L7.79475 9.009C7.62925 9.16275 7.37025 9.1625 7.21175 9.0155L5.8435 7.641L5.8555 7.62925L0.91175 2.625H14.0915L9.14425 7.6295L9.15625 7.641ZM5.131 7.63325L0.5 12.0887V2.98075L5.131 7.63325ZM5.4835 7.9875L6.86425 9.37475C7.0415 9.54 7.269 9.623 7.4975 9.623C7.72825 9.623 7.96 9.53825 8.14275 9.368L9.51675 7.9875L14.076 12.375H0.9215L5.4835 7.9875ZM9.86925 7.6335L14.5 2.9805V12.0887L9.86925 7.6335Z" fill="#FFE500"/>
</svg>
