<svg width="15" height="15" viewBox="0 0 15 15" fill="none" xmlns="http://www.w3.org/2000/svg">
<path d="M7.25 0C5.182 0 3.5 1.682 3.5 3.75V5.25C3.5 5.5785 4 5.584 4 5.25V3.75C4 1.952 5.452 0.5 7.25 0.5C9.048 0.5 10.5 1.952 10.5 3.75V5.25C10.5 5.588 11 5.572 11 5.25V3.75C11 1.682 9.318 0 7.25 0ZM7.25 8.5C6.5625 8.5 6 9.0625 6 9.75C6 10.135 6.203 10.4725 6.5 10.707V11.75C6.5 12.161 6.839 12.5 7.25 12.5C7.661 12.5 8 12.161 8 11.75V10.706C8.297 10.471 8.5 10.1345 8.5 9.75C8.5 9.0625 7.9375 8.5 7.25 8.5ZM7.25 9C7.667 9 8 9.333 8 9.75C8 10.018 7.857 10.2635 7.625 10.3975C7.5475 10.4425 7.5 10.525 7.5 10.6145V11.7495C7.5 11.8925 7.393 11.9995 7.25 11.9995C7.107 11.9995 7 11.8925 7 11.7495V10.6145C7 10.5255 6.9525 10.4425 6.875 10.398C6.643 10.264 6.5 10.018 6.5 9.7495C6.5 9.3325 6.833 9 7.25 9ZM2.75 6C2.339 6 2 6.339 2 6.75V14.25C2 14.661 2.339 15 2.75 15H11.75C12.161 15 12.5 14.661 12.5 14.25V6.75C12.5 6.339 12.161 6 11.75 6H2.75ZM2.75 6.5H11.75C11.893 6.5 12 6.607 12 6.75V14.25C12 14.393 11.893 14.5 11.75 14.5H2.75C2.607 14.5 2.5 14.393 2.5 14.25V6.75C2.5 6.607 2.607 6.5 2.75 6.5Z" fill="#FFE500"/>
</svg>
