<svg width="13" height="6" viewBox="0 0 13 6" fill="none" xmlns="http://www.w3.org/2000/svg">
<path d="M12.4091 0H0.590909C0.43419 0 0.28389 0.0632142 0.173073 0.175736C0.0622563 0.288258 0 0.44087 0 0.6V5.4C0 5.55913 0.0622563 5.71174 0.173073 5.82426C0.28389 5.93679 0.43419 6 0.590909 6H12.4091C12.5658 6 12.7161 5.93679 12.8269 5.82426C12.9377 5.71174 13 5.55913 13 5.4V0.6C13 0.44087 12.9377 0.288258 12.8269 0.175736C12.7161 0.0632142 12.5658 0 12.4091 0ZM4.52045 4.5H3.78182L2.89545 3L2.68864 2.61V4.5H1.97955V1.5H2.71818L3.60455 3L3.78182 3.39H3.81136C3.81136 3.39 3.78182 3.03 3.78182 2.91V1.5H4.52045V4.5ZM7.20909 4.5H4.93409V1.5H7.17954V2.1H5.67273V2.64H6.97273V3.24H5.67273V3.87H7.20909V4.5ZM10.4295 4.5H9.69091L9.39545 3.06C9.33636 2.82 9.27727 2.49 9.27727 2.49C9.27727 2.49 9.21818 2.82 9.18864 3.06L8.86364 4.5H8.15454L7.32727 1.5H8.06591L8.36136 2.76C8.42619 3.00657 8.47553 3.25708 8.50909 3.51L8.65682 2.79L8.95227 1.5H9.63182L9.89773 2.79L10.0455 3.51L10.1932 2.76L10.4886 1.5H11.2273L10.4295 4.5Z" fill="#D01004"/>
</svg>
