<svg width="9" height="8" viewBox="0 0 9 8" fill="none" xmlns="http://www.w3.org/2000/svg">
<path d="M1.89715 6.81436C1.45116 6.40627 1.09479 5.91 0.850615 5.35699C0.606442 4.80398 0.47979 4.20628 0.478681 3.60176C0.477572 2.99725 0.602032 2.39909 0.844175 1.84518C1.08632 1.29128 1.44086 0.793706 1.88535 0.383985C2.10079 0.186239 1.77922 -0.133964 1.5647 0.061514C1.07094 0.509488 0.676583 1.056 0.407075 1.66579C0.137568 2.27558 -0.00110453 2.9351 6.62505e-06 3.60179C0.00111778 4.26848 0.141988 4.92753 0.413527 5.53642C0.685065 6.14531 1.08124 6.69051 1.57649 7.13683C1.79192 7.33322 2.11349 7.01301 1.89715 6.81618V6.81436Z" fill="#D01004"/>
<path d="M3.06728 5.27991C2.83363 5.06687 2.64688 4.80753 2.51891 4.51839C2.39094 4.22926 2.32454 3.91665 2.32394 3.60046C2.32335 3.28427 2.38856 2.97142 2.51544 2.6818C2.64232 2.39219 2.82809 2.13215 3.06093 1.91822C3.27591 1.72003 2.9548 1.39982 2.74027 1.59757C2.46571 1.85386 2.2469 2.16398 2.0975 2.50858C1.94809 2.85317 1.87129 3.22486 1.87189 3.60045C1.87249 3.97604 1.95046 4.34748 2.10096 4.6916C2.25146 5.03572 2.47125 5.34514 2.74662 5.60056C2.9616 5.7974 3.28316 5.4772 3.06728 5.27991Z" fill="#D01004"/>
<path d="M4.50052 4.16328C4.81213 4.16328 5.06473 3.91068 5.06473 3.59907C5.06473 3.28746 4.81213 3.03486 4.50052 3.03486C4.18892 3.03486 3.93631 3.28746 3.93631 3.59907C3.93631 3.91068 4.18892 4.16328 4.50052 4.16328Z" fill="#D01004"/>
<path d="M7.10385 0.383883C7.54984 0.791972 7.90621 1.28824 8.15038 1.84125C8.39456 2.39427 8.52121 2.99196 8.52232 3.59648C8.52343 4.201 8.39897 4.79916 8.15682 5.35306C7.91468 5.90696 7.56013 6.40454 7.11564 6.81426C6.90021 7.01201 7.22177 7.33221 7.4363 7.13492C7.92976 6.68695 8.32387 6.14055 8.59319 5.53093C8.86252 4.92131 9.0011 4.26201 8.99999 3.59555C8.99888 2.92908 8.8581 2.27025 8.58674 1.66153C8.31538 1.05282 7.91946 0.507726 7.42451 0.0614123C7.20908 -0.134973 6.88751 0.18523 7.10385 0.382069V0.383883Z" fill="#D01004"/>
<path d="M5.9337 1.91823C6.16735 2.13127 6.35409 2.39061 6.48207 2.67974C6.61004 2.96888 6.67644 3.28148 6.67703 3.59767C6.67763 3.91386 6.61242 4.22672 6.48554 4.51633C6.35866 4.80595 6.17289 5.06599 5.94005 5.27991C5.72507 5.47811 6.04618 5.79832 6.26071 5.60057C6.53527 5.34428 6.75407 5.03416 6.90348 4.68956C7.05288 4.34497 7.12968 3.97328 7.12909 3.59769C7.12849 3.2221 7.05051 2.85066 6.90002 2.50654C6.74952 2.16242 6.52973 1.85299 6.25436 1.59757C6.03938 1.40073 5.71781 1.72094 5.9337 1.91823Z" fill="#D01004"/>
</svg>
