<svg width="15" height="15" viewBox="0 0 15 15" fill="none" xmlns="http://www.w3.org/2000/svg">
<path d="M12.7492 0H3.20174C2.67539 0.000175428 2.16575 0.184881 1.76151 0.521981C1.35726 0.859081 1.08399 1.32724 0.989248 1.845L0.0367501 7.09498C-0.0225985 7.41931 -0.00994121 7.75272 0.073826 8.07162C0.157593 8.39051 0.310423 8.6871 0.521501 8.9404C0.732579 9.19369 0.996746 9.3975 1.29531 9.5374C1.59387 9.6773 1.91953 9.74987 2.24925 9.74998H5.66924L5.24924 10.8225C5.07454 11.2921 5.01636 11.797 5.07969 12.294C5.14302 12.791 5.32597 13.2653 5.61285 13.676C5.89972 14.0868 6.28197 14.4219 6.72678 14.6525C7.1716 14.883 7.66571 15.0023 8.16673 15C8.311 14.9997 8.45213 14.9578 8.57318 14.8793C8.69423 14.8008 8.79008 14.6891 8.84923 14.5575L10.9867 9.74998H12.7492C13.346 9.74998 13.9183 9.51293 14.3402 9.09097C14.7622 8.66901 14.9992 8.09672 14.9992 7.49998V2.24999C14.9992 1.65326 14.7622 1.08096 14.3402 0.659008C13.9183 0.237052 13.346 0 12.7492 0ZM9.74923 8.84248L7.70923 13.4325C7.5005 13.3693 7.30691 13.2641 7.14039 13.1233C6.97387 12.9825 6.83794 12.8091 6.74097 12.6137C6.64401 12.4184 6.58807 12.2053 6.57659 11.9875C6.56511 11.7697 6.59834 11.5519 6.67424 11.3475L7.07174 10.275C7.15644 10.0483 7.18503 9.80447 7.15508 9.56433C7.12513 9.32419 7.03752 9.09487 6.89974 8.89593C6.76195 8.69698 6.57808 8.53433 6.36381 8.42185C6.14954 8.30937 5.91124 8.2504 5.66924 8.24998H2.24925C2.13906 8.25016 2.03019 8.22606 1.93038 8.17939C1.83057 8.13273 1.74226 8.06464 1.67175 7.97998C1.5995 7.89649 1.54657 7.79807 1.51676 7.69176C1.48694 7.58545 1.48096 7.47387 1.49925 7.36498L2.45174 2.115C2.48369 1.94028 2.57661 1.78257 2.71395 1.66995C2.8513 1.55732 3.02415 1.4971 3.20174 1.5H9.74923V8.84248ZM13.4992 7.49998C13.4992 7.6989 13.4202 7.88966 13.2796 8.03031C13.1389 8.17096 12.9481 8.24998 12.7492 8.24998H11.2492V1.5H12.7492C12.9481 1.5 13.1389 1.57901 13.2796 1.71967C13.4202 1.86032 13.4992 2.05108 13.4992 2.24999V7.49998Z" fill="#FFE500"/>
</svg>
