<svg width="15" height="15" viewBox="0 0 15 15" fill="none" xmlns="http://www.w3.org/2000/svg">
<path d="M14.475 6.06002C14.2642 5.80701 14.0005 5.60333 13.7025 5.46337C13.4044 5.32342 13.0793 5.25058 12.75 5.25002H9.32998L9.74998 4.17752C9.92468 3.70794 9.98286 3.20298 9.91953 2.70597C9.8562 2.20896 9.67325 1.73472 9.38637 1.32395C9.09949 0.913181 8.71725 0.57813 8.27244 0.34754C7.82762 0.116951 7.33351 -0.00229457 6.83249 3.34434e-05C6.68821 0.000334464 6.54709 0.0422398 6.42604 0.120725C6.30499 0.199211 6.20914 0.310945 6.14999 0.442532L4.01249 5.25002H2.25C1.65326 5.25002 1.08096 5.48707 0.659008 5.90903C0.237052 6.33099 0 6.90328 0 7.50002V12.75C0 13.3467 0.237052 13.919 0.659008 14.341C1.08096 14.7629 1.65326 15 2.25 15H11.7975C12.3238 14.9998 12.8335 14.8151 13.2377 14.478C13.642 14.1409 13.9152 13.6728 14.01 13.155L14.9625 7.90502C15.0214 7.58055 15.0083 7.2471 14.924 6.92827C14.8398 6.60945 14.6865 6.31303 14.475 6.06002ZM3.74999 13.5H2.25C2.05108 13.5 1.86032 13.421 1.71967 13.2803C1.57901 13.1397 1.5 12.9489 1.5 12.75V7.50002C1.5 7.3011 1.57901 7.11034 1.71967 6.96969C1.86032 6.82904 2.05108 6.75002 2.25 6.75002H3.74999V13.5ZM13.5 7.63502L12.5475 12.885C12.5155 13.0597 12.4226 13.2174 12.2853 13.3301C12.1479 13.4427 11.9751 13.5029 11.7975 13.5H5.24999V6.15752L7.28998 1.56753C7.49997 1.62875 7.69499 1.73283 7.86273 1.87322C8.03046 2.0136 8.16728 2.18723 8.26453 2.38315C8.36179 2.57907 8.41737 2.79302 8.42777 3.0115C8.43818 3.22998 8.40318 3.44825 8.32498 3.65253L7.92748 4.72502C7.84278 4.95171 7.81419 5.19553 7.84414 5.43567C7.87409 5.67581 7.9617 5.90513 8.09948 6.10407C8.23727 6.30302 8.42114 6.46567 8.63541 6.57815C8.84968 6.69063 9.08798 6.7496 9.32998 6.75002H12.75C12.8602 6.74984 12.969 6.77394 13.0688 6.82061C13.1686 6.86727 13.257 6.93536 13.3275 7.02002C13.3997 7.10351 13.4526 7.20193 13.4825 7.30824C13.5123 7.41455 13.5183 7.52613 13.5 7.63502Z" fill="#FFE500"/>
</svg>
