<svg width="144" height="37" viewBox="0 0 144 37" fill="none" xmlns="http://www.w3.org/2000/svg">
<path d="M7.125 1L2.75 15L1.7615 18.954C1.26009 20.9596 1.21031 23.0516 1.61575 25.0788L2.13128 27.6564C2.52744 29.6372 3.69424 31.3795 5.375 32.5C7.11207 33.658 9.0353 34.5088 11.0607 35.0152L11.5 35.125C13.798 35.6995 16.202 35.6995 18.5 35.125L18.9393 35.0152C20.9647 34.5088 22.8879 33.658 24.625 32.5C26.3058 31.3795 27.4726 29.6372 27.8687 27.6564L28.3842 25.0788C28.7897 23.0516 28.7399 20.9596 28.2385 18.954L27.25 15L22.875 1L21.238 14.0958C21.1861 14.5112 20.7151 14.7268 20.3668 14.4945L19.7286 14.0691C18.9156 13.5271 18.0154 13.1289 17.0675 12.8919C15.7101 12.5525 14.2899 12.5525 12.9325 12.8919C11.9846 13.1289 11.0844 13.5271 10.2714 14.0691L9.63319 14.4945C9.28485 14.7268 8.8139 14.5112 8.76198 14.0958L7.125 1Z" fill="#FFE500" stroke="#FFE500"/>
<path d="M6.25 23.75L8 22L9.75 23.75M20.25 23.75L22 22L23.75 23.75M11.5 29L13.0088 30.9932C13.1312 31.1549 13.3731 31.1583 13.5 31V31L14.5 30L15 29.5L15.5 30L16.5 31V31C16.6269 31.1583 16.8688 31.1549 16.9912 30.9932L18.5 29" stroke="black"/>
<path d="M31.9256 29.1007L29.1729 13.4205C29.0774 12.8765 29.441 12.3581 29.9849 12.2626L35.737 11.2529C36.2809 11.1574 36.7993 11.5209 36.8948 12.0649L39.6475 27.7451C39.743 28.2891 39.3794 28.8075 38.8354 28.903L33.0834 29.9127C32.5394 30.0082 32.0211 29.6447 31.9256 29.1007Z" fill="#FFE500" stroke="#FFE500"/>
<circle cx="33.1514" cy="13.4124" r="0.56" transform="rotate(-9.95681 33.1514 13.4124)" fill="black"/>
<path d="M53.3618 13.6L50.2378 29H46.1018L42.9778 13.6H46.1458L47.3558 20.728L48.1038 25.348H48.2358L48.9838 20.728L50.1938 13.6H53.3618Z" fill="#FFE500"/>
<path d="M53.5471 29V17.758H56.4511V29H53.5471ZM53.5471 13.6H56.4511V16.57H53.5471V13.6Z" fill="#FFE500"/>
<path d="M65.9721 29H63.7501L63.3541 28.208C63.0314 28.5013 62.7234 28.7067 62.4301 28.824C62.1514 28.9413 61.7261 29 61.1541 29H59.2401C58.5947 28.384 58.0814 27.5773 57.7001 26.58C57.3334 25.5827 57.1501 24.468 57.1501 23.236C57.1501 21.9893 57.3334 20.9333 57.7001 20.068C58.0814 19.2027 58.6167 18.4327 59.3061 17.758H61.1981C61.9754 17.758 62.5914 17.9633 63.0461 18.374V13.6H65.9721V29ZM63.0461 20.068H60.9341C60.3914 20.992 60.1201 22.1287 60.1201 23.478C60.1201 24.8127 60.3841 25.8833 60.9121 26.69H63.0461V20.068Z" fill="#FFE500"/>
<path d="M72.0585 20.068H70.4085C70.1885 20.332 70.0052 20.6987 69.8585 21.168C69.7265 21.6373 69.6605 22.092 69.6605 22.532H72.8065C72.8359 22.092 72.7772 21.6373 72.6305 21.168C72.4839 20.684 72.2932 20.3173 72.0585 20.068ZM75.0505 26.69V29H69.4625C68.4359 28.3107 67.7099 27.46 67.2845 26.448C66.8739 25.4213 66.6685 24.3873 66.6685 23.346C66.6685 20.9407 67.5779 19.078 69.3965 17.758H72.9605C73.9432 18.4767 74.6105 19.2393 74.9625 20.046C75.3145 20.8527 75.4905 21.6667 75.4905 22.488C75.4905 23.3093 75.4245 24.0133 75.2925 24.6H69.8145C69.8585 24.9373 69.9832 25.326 70.1885 25.766C70.4085 26.1913 70.6432 26.4993 70.8925 26.69H75.0505Z" fill="#FFE500"/>
<path d="M82.7747 29H77.9788C76.5121 27.636 75.7788 25.7733 75.7788 23.412C75.7788 22.224 75.9401 21.19 76.2628 20.31C76.6001 19.43 77.1281 18.5793 77.8468 17.758H82.9948C83.7574 18.638 84.2781 19.496 84.5568 20.332C84.8354 21.1533 84.9748 22.18 84.9748 23.412C84.9748 25.7733 84.2414 27.636 82.7747 29ZM79.5408 26.69H81.2128C81.7408 25.6633 82.0048 24.4973 82.0048 23.192C82.0048 21.8867 81.7334 20.8453 81.1908 20.068H79.5408C79.0128 20.816 78.7488 21.8793 78.7488 23.258C78.7488 24.622 79.0128 25.766 79.5408 26.69Z" fill="#FFE500"/>
<path d="M89.8311 13.6H95.1111V16.24H90.8871L90.8211 16.372L94.3411 22.796C95.0597 24.0867 95.4191 25.0693 95.4191 25.744C95.4191 27.2253 94.9278 28.3107 93.9451 29H88.1151V26.448H92.6691L92.7351 26.316L88.7751 19.21C88.2031 18.1833 87.9171 17.3473 87.9171 16.702C87.9171 15.1767 88.5551 14.1427 89.8311 13.6Z" fill="#FFE500"/>
<path d="M96.1927 24.094V20.068H94.6747V17.758H96.1927V14.7H99.1187V17.758H100.923V20.068H99.1187V24.798C99.1187 25.6927 99.2727 26.3233 99.5807 26.69H100.923V29H97.7987C97.0214 28.2813 96.552 27.504 96.3907 26.668C96.2587 25.964 96.1927 25.106 96.1927 24.094Z" fill="#FFE500"/>
<path d="M107.979 29H103.183C101.717 27.636 100.983 25.7733 100.983 23.412C100.983 22.224 101.145 21.19 101.467 20.31C101.805 19.43 102.333 18.5793 103.051 17.758H108.199C108.962 18.638 109.483 19.496 109.761 20.332C110.04 21.1533 110.179 22.18 110.179 23.412C110.179 25.7733 109.446 27.636 107.979 29ZM104.745 26.69H106.417C106.945 25.6633 107.209 24.4973 107.209 23.192C107.209 21.8867 106.938 20.8453 106.395 20.068H104.745C104.217 20.816 103.953 21.8793 103.953 23.258C103.953 24.622 104.217 25.766 104.745 26.69Z" fill="#FFE500"/>
<path d="M110.896 29V17.758H112.986L113.536 18.946C114.123 18.154 114.864 17.758 115.758 17.758H116.616V20.706H113.822V29H110.896Z" fill="#FFE500"/>
<path d="M121.87 23.918H119.516C119.208 24.2993 119.054 24.776 119.054 25.348C119.054 25.92 119.216 26.3673 119.538 26.69H121.87V23.918ZM117.14 17.758H122.596C123.476 18.286 124.056 18.8947 124.334 19.584C124.613 20.2587 124.752 21.1827 124.752 22.356V25.656C124.752 26.8733 124.782 27.988 124.84 29H122.332L121.936 28.208C121.364 28.736 120.558 29 119.516 29H118.13C116.884 28.1787 116.26 26.998 116.26 25.458C116.26 23.9033 116.898 22.6787 118.174 21.784H120.242C120.814 21.784 121.35 21.96 121.848 22.312V21.212C121.848 20.64 121.599 20.2587 121.1 20.068H117.14V17.758Z" fill="#FFE500"/>
<path d="M134.279 17.758V27.834C134.279 28.9487 134.132 29.8433 133.839 30.518C133.56 31.1927 132.995 31.7867 132.145 32.3H127.129V30.012H130.891C131.257 29.792 131.441 29.44 131.441 28.956V27.658C130.898 28.1127 130.033 28.34 128.845 28.34H127.239C126.051 26.9173 125.457 25.2673 125.457 23.39C125.457 22.0407 125.647 20.9407 126.029 20.09C126.41 19.2247 126.967 18.4473 127.701 17.758H129.329C130.282 17.758 131.037 18.066 131.595 18.682L131.991 17.758H134.279ZM131.353 20.068H129.219C128.691 20.9773 128.427 22.026 128.427 23.214C128.427 24.3873 128.654 25.3553 129.109 26.118H131.353V20.068Z" fill="#FFE500"/>
<path d="M140.279 20.068H138.629C138.409 20.332 138.226 20.6987 138.079 21.168C137.947 21.6373 137.881 22.092 137.881 22.532H141.027C141.056 22.092 140.998 21.6373 140.851 21.168C140.704 20.684 140.514 20.3173 140.279 20.068ZM143.271 26.69V29H137.683C136.656 28.3107 135.93 27.46 135.505 26.448C135.094 25.4213 134.889 24.3873 134.889 23.346C134.889 20.9407 135.798 19.078 137.617 17.758H141.181C142.164 18.4767 142.831 19.2393 143.183 20.046C143.535 20.8527 143.711 21.6667 143.711 22.488C143.711 23.3093 143.645 24.0133 143.513 24.6H138.035C138.079 24.9373 138.204 25.326 138.409 25.766C138.629 26.1913 138.864 26.4993 139.113 26.69H143.271Z" fill="#FFE500"/>
</svg>
