<svg width="41" height="37" viewBox="0 0 41 37" fill="none" xmlns="http://www.w3.org/2000/svg">
<path d="M7.125 1L2.75 15L1.7615 18.954C1.26009 20.9596 1.21031 23.0516 1.61575 25.0788L2.13128 27.6564C2.52744 29.6372 3.69424 31.3795 5.375 32.5C7.11207 33.658 9.0353 34.5088 11.0607 35.0152L11.5 35.125C13.798 35.6995 16.202 35.6995 18.5 35.125L18.9393 35.0152C20.9647 34.5088 22.8879 33.658 24.625 32.5C26.3058 31.3795 27.4726 29.6372 27.8687 27.6564L28.3842 25.0788C28.7897 23.0516 28.7399 20.9596 28.2385 18.954L27.25 15L22.875 1L21.238 14.0958C21.1861 14.5112 20.7151 14.7268 20.3668 14.4945L19.7286 14.0691C18.9156 13.5271 18.0154 13.1289 17.0675 12.8919C15.7101 12.5525 14.2899 12.5525 12.9325 12.8919C11.9846 13.1289 11.0844 13.5271 10.2714 14.0691L9.63319 14.4945C9.28485 14.7268 8.8139 14.5112 8.76198 14.0958L7.125 1Z" fill="#FFE500" stroke="#FFE500"/>
<path d="M6.25 23.75L8 22L9.75 23.75M20.25 23.75L22 22L23.75 23.75M11.5 29L13.0088 30.9932C13.1312 31.1549 13.3731 31.1583 13.5 31V31L14.5 30L15 29.5L15.5 30L16.5 31V31C16.6269 31.1583 16.8688 31.1549 16.9912 30.9932L18.5 29" stroke="black"/>
<path d="M31.9256 29.1007L29.1729 13.4205C29.0774 12.8765 29.441 12.3581 29.9849 12.2627L35.737 11.2529C36.2809 11.1574 36.7993 11.521 36.8948 12.0649L39.6475 27.7451C39.743 28.2891 39.3794 28.8075 38.8354 28.903L33.0834 29.9128C32.5394 30.0082 32.0211 29.6447 31.9256 29.1007Z" fill="#FFE500" stroke="#FFE500"/>
<circle cx="33.1514" cy="13.4125" r="0.56" transform="rotate(-9.95681 33.1514 13.4125)" fill="black"/>
</svg>
