<svg width="14" height="14" viewBox="0 0 14 14" fill="none" xmlns="http://www.w3.org/2000/svg">
<path d="M13.3 6.3H12.551C12.3948 5.06798 11.8334 3.92285 10.9553 3.04471C10.0771 2.16657 8.93201 1.60524 7.7 1.449V0.7C7.7 0.514348 7.62625 0.336301 7.49497 0.205025C7.3637 0.0737498 7.18565 0 7 0C6.81435 0 6.6363 0.0737498 6.50503 0.205025C6.37375 0.336301 6.3 0.514348 6.3 0.7V1.449C5.06798 1.60524 3.92285 2.16657 3.04471 3.04471C2.16657 3.92285 1.60524 5.06798 1.449 6.3H0.7C0.514348 6.3 0.336301 6.37375 0.205025 6.50503C0.0737498 6.6363 0 6.81435 0 7C0 7.18565 0.0737498 7.3637 0.205025 7.49497C0.336301 7.62625 0.514348 7.7 0.7 7.7H1.449C1.60524 8.93201 2.16657 10.0771 3.04471 10.9553C3.92285 11.8334 5.06798 12.3948 6.3 12.551V13.3C6.3 13.4857 6.37375 13.6637 6.50503 13.795C6.6363 13.9263 6.81435 14 7 14C7.18565 14 7.3637 13.9263 7.49497 13.795C7.62625 13.6637 7.7 13.4857 7.7 13.3V12.551C8.93201 12.3948 10.0771 11.8334 10.9553 10.9553C11.8334 10.0771 12.3948 8.93201 12.551 7.7H13.3C13.4857 7.7 13.6637 7.62625 13.795 7.49497C13.9263 7.3637 14 7.18565 14 7C14 6.81435 13.9263 6.6363 13.795 6.50503C13.6637 6.37375 13.4857 6.3 13.3 6.3ZM10.5 7.7H11.137C10.9911 8.55851 10.582 9.35045 9.96621 9.96621C9.35045 10.582 8.55851 10.9911 7.7 11.137V10.5C7.7 10.3143 7.62625 10.1363 7.49497 10.005C7.3637 9.87375 7.18565 9.8 7 9.8C6.81435 9.8 6.6363 9.87375 6.50503 10.005C6.37375 10.1363 6.3 10.3143 6.3 10.5V11.137C5.44149 10.9911 4.64955 10.582 4.03379 9.96621C3.41803 9.35045 3.00889 8.55851 2.863 7.7H3.5C3.68565 7.7 3.8637 7.62625 3.99497 7.49497C4.12625 7.3637 4.2 7.18565 4.2 7C4.2 6.81435 4.12625 6.6363 3.99497 6.50503C3.8637 6.37375 3.68565 6.3 3.5 6.3H2.863C3.00889 5.44149 3.41803 4.64955 4.03379 4.03379C4.64955 3.41803 5.44149 3.00889 6.3 2.863V3.5C6.3 3.68565 6.37375 3.8637 6.50503 3.99497C6.6363 4.12625 6.81435 4.2 7 4.2C7.18565 4.2 7.3637 4.12625 7.49497 3.99497C7.62625 3.8637 7.7 3.68565 7.7 3.5V2.863C8.55851 3.00889 9.35045 3.41803 9.96621 4.03379C10.582 4.64955 10.9911 5.44149 11.137 6.3H10.5C10.3143 6.3 10.1363 6.37375 10.005 6.50503C9.87375 6.6363 9.8 6.81435 9.8 7C9.8 7.18565 9.87375 7.3637 10.005 7.49497C10.1363 7.62625 10.3143 7.7 10.5 7.7ZM7 6.3C6.86155 6.3 6.72621 6.34105 6.6111 6.41797C6.49599 6.49489 6.40627 6.60421 6.35328 6.73212C6.3003 6.86003 6.28644 7.00078 6.31345 7.13656C6.34046 7.27235 6.40713 7.39708 6.50503 7.49497C6.60292 7.59287 6.72765 7.65954 6.86344 7.68655C6.99922 7.71356 7.13997 7.6997 7.26788 7.64672C7.39579 7.59373 7.50511 7.50401 7.58203 7.3889C7.65895 7.27378 7.7 7.13845 7.7 7C7.7 6.81435 7.62625 6.6363 7.49497 6.50503C7.3637 6.37375 7.18565 6.3 7 6.3Z" fill="#FFE500"/>
</svg>
