<svg width="33" height="33" viewBox="0 0 33 33" fill="none" xmlns="http://www.w3.org/2000/svg">
<path fill-rule="evenodd" clip-rule="evenodd" d="M20.9831 5.67675L16.5 0L12.0169 5.67675L4.83274 4.83274L5.67675 12.0169L0 16.5L5.67675 20.9831L4.83274 28.1673L12.0169 27.3232L16.5 33L20.9831 27.3232L28.1673 28.1673L27.3232 20.9831L33 16.5L27.3232 12.0169L28.1673 4.83274L20.9831 5.67675ZM17.16 22.44C20.0761 22.44 22.44 20.0761 22.44 17.16C22.44 14.2439 20.0761 11.88 17.16 11.88C14.2439 11.88 11.88 14.2439 11.88 17.16C11.88 20.0761 14.2439 22.44 17.16 22.44Z" fill="#FFE500"/>
</svg>
