<svg width="15" height="15" viewBox="0 0 15 15" fill="none" xmlns="http://www.w3.org/2000/svg">
<path d="M12.5 12.5L2.49998 7.5L12.5 2.5" stroke="#FFE500" stroke-width="2" stroke-miterlimit="10" stroke-linecap="round" stroke-linejoin="round"/>
<path d="M12.5 5C13.8807 5 15 3.88071 15 2.5C15 1.11929 13.8807 0 12.5 0C11.1193 0 10 1.11929 10 2.5C10 3.88071 11.1193 5 12.5 5Z" fill="#FFE500"/>
<path d="M12.5 15C13.8807 15 15 13.8807 15 12.5C15 11.1193 13.8807 10 12.5 10C11.1193 10 10 11.1193 10 12.5C10 13.8807 11.1193 15 12.5 15Z" fill="#FFE500"/>
<path d="M2.5 10C3.88071 10 5 8.88071 5 7.5C5 6.11929 3.88071 5 2.5 5C1.11929 5 0 6.11929 0 7.5C0 8.88071 1.11929 10 2.5 10Z" fill="#FFE500"/>
</svg>
