<svg width="19" height="18" viewBox="0 0 19 18" fill="none" xmlns="http://www.w3.org/2000/svg">
<path d="M9.5 0.00421037C7.06056 -0.0694681 4.69128 0.826335 2.91081 2.49553C1.13033 4.16473 0.0836946 6.47134 0 8.91046C0.0836946 11.3496 1.13033 13.6562 2.91081 15.3254C4.69128 16.9946 7.06056 17.8904 9.5 17.8167C11.9394 17.8904 14.3087 16.9946 16.0892 15.3254C17.8697 13.6562 18.9163 11.3496 19 8.91046C18.9163 6.47134 17.8697 4.16473 16.0892 2.49553C14.3087 0.826335 11.9394 -0.0694681 9.5 0.00421037ZM9.5 16.3323C7.45414 16.4063 5.46228 15.6669 3.96012 14.276C2.45797 12.8851 1.56782 10.956 1.48438 8.91046C1.56782 6.86497 2.45797 4.93577 3.96012 3.54489C5.46228 2.15401 7.45414 1.41467 9.5 1.48859C11.5459 1.41467 13.5377 2.15401 15.0399 3.54489C16.542 4.93577 17.4322 6.86497 17.5156 8.91046C17.4322 10.956 16.542 12.8851 15.0399 14.276C13.5377 15.6669 11.5459 16.4063 9.5 16.3323Z" fill="#FFE500"/>
<path d="M10.2481 4.45734H8.76373V9.65859H13.0625V8.17421H10.2481V4.45734Z" fill="#FFE500"/>
</svg>
