<svg width="18" height="17" viewBox="0 0 18 17" fill="none" xmlns="http://www.w3.org/2000/svg">
<path fill-rule="evenodd" clip-rule="evenodd" d="M5.71358 6.26145H1.75941C1.02619 6.26145 1 6.81137 1 7.51841V13.8817C1 14.5626 1.02619 15.1387 1.75941 15.1387H5.71358C6.44681 15.1387 6.47299 14.5888 6.47299 13.8817V7.51841C6.47299 6.83756 6.44681 6.26145 5.71358 6.26145Z" stroke="#FFE500"/>
<path d="M6.42062 14.196H6.78724C7.78233 14.1698 8.43699 15.6886 9.1964 15.6886H15.1146C15.8478 15.6886 16.0049 14.5888 15.9787 14.1174C15.9787 14.1174 16.8953 13.6984 16.4763 12.0225C16.5286 11.9963 17 11.5511 17 10.687C17 9.82283 16.5025 9.40384 16.5025 9.40384C16.5025 9.40384 17 8.85392 17 8.04214C17 7.23036 16.293 6.78518 15.5597 6.78518H13.3863C11.5008 6.78518 11.6579 5.76391 11.6579 5.76391C11.6579 5.76391 11.4484 3.11906 10.7676 1.88829C9.92962 0.369473 8.25368 0.867018 8.88216 2.8572C9.35352 4.32365 7.23241 6.52332 6.44681 7.25654" stroke="#FFE500"/>
</svg>
